<svg id="Capa_1" enable-background="new 0 0 512 512" height="512" viewBox="0 0 512 512" width="512" xmlns="http://www.w3.org/2000/svg"><g><g><path d="m310.54 374.607-310.54-258.527h123.911v-113.16l248.87 336.999-13.96 27.847z" fill="#ffbe40"/></g><path d="m123.911 116.08 218.539 254.006 16.371-2.32 13.96-27.847-248.87-336.999z" fill="#ff9f40"/><g><g><path d="m461.683 509.08-81.841-43.301-81.841 43.301 15.894-91.055-66.167-64.585 91.318-13.184 40.767-82.925 40.898 82.954 91.289 13.111-66.211 64.629z" fill="#ffdf40"/></g></g><path d="m199.842 356.414c-24.814 0-45-20.186-45-45v-15h-30v15c0 24.814-20.186 45-45 45h-15v30h15c24.814 0 45 20.186 45 45v15h30v-15c0-24.814 20.186-45 45-45h15v-30z" fill="#ffdf40"/><g fill="#ffbe40"><path d="m409.842 116.414c-24.814 0-45-20.186-45-45v-15h-30v15c0 24.814-20.186 45-45 45h-15v30h15c24.814 0 45 20.186 45 45v15h30v-15c0-24.814 20.186-45 45-45h15v-30z"/><path d="m512 353.396-91.289-13.11-40.898-82.954-40.767 82.924-19.741 2.849 142.378 165.975-15.894-91.055z"/></g></g></svg>