<svg id="Capa_1" enable-background="new 0 0 512 512" height="512" viewBox="0 0 512 512" width="512" xmlns="http://www.w3.org/2000/svg"><g><path d="m249.624 8.19-242.388 475.361 34.838-22.11 310.494-310.494 13.542-26.27z" fill="#ffa6f0"/><path d="m387.323 145.89-23.758 11.03-305.972 305.972-29.144 41.872 475.361-242.388z" fill="#80e9ff"/><path d="m376.717 135.283-10.607-10.607-358.874 358.875-1.077 2.113c-2.952 5.79-1.844 12.823 2.755 17.422s11.632 5.707 17.422 2.755l2.113-1.077 358.874-358.874z" fill="#c68cff"/><path d="m26.336 505.841 2.113-1.077 358.874-358.874-10.607-10.607-367.802 367.803c4.599 4.599 11.632 5.707 17.422 2.755z" fill="#aa80ff"/><g><path d="m133.065 503.81c-3.76-7.385-.839-16.417 6.546-20.177l142.486-74.535c7.375-3.77 16.386-.808 20.177 6.546 3.76 7.385.839 16.417-6.546 20.177l-142.486 74.535c-7.411 3.79-16.431.788-20.177-6.546z" fill="#ffbe40"/></g><g><path d="m1.644 358.758 74.535-142.486c3.76-7.385 12.792-10.306 20.177-6.546 7.333 3.75 10.327 12.792 6.546 20.177l-74.534 142.486c-3.76 7.385-12.792 10.306-20.177 6.546-7.333-3.745-10.338-12.764-6.547-20.177z" fill="#ffdf40"/></g><path d="m510.366 255.84c2.59-5.096 2.072-11.207-1.347-15.786l-64.385-86.282 34.565-101.954c1.844-5.407-.207-11.083-4.071-14.947s-9.54-5.914-14.947-4.071l-101.953 34.566-86.282-64.386c-4.578-3.418-10.689-3.936-15.786-1.347-5.075 2.59-8.255 7.841-8.183 13.548l1.388 107.661-87.908 62.158c-4.661 3.294-7.043 8.949-6.153 14.584.887 5.688 4.972 10.319 10.358 11.974l102.803 31.975 31.975 102.803c1.668 5.438 6.329 9.478 11.974 10.358 5.635.891 11.29-1.492 14.584-6.153l62.158-87.908 107.661 1.388c5.708.074 10.96-3.106 13.549-8.181z" fill="#ffdf40"/><path d="m312.414 356.696c5.635.891 11.29-1.492 14.584-6.153l62.158-87.908 107.661 1.388c5.707.073 10.959-3.107 13.548-8.183 2.59-5.096 2.072-11.207-1.347-15.786l-64.385-86.282 34.565-101.954c1.844-5.407-.207-11.083-4.071-14.947l-206.662 206.664 31.975 102.803c1.668 5.438 6.329 9.478 11.974 10.358z" fill="#ffbe40"/></g></svg>