<svg id="Capa_1" enable-background="new 0 0 512 512" height="512" viewBox="0 0 512 512" width="512" xmlns="http://www.w3.org/2000/svg"><g><g><g><path d="m342.104 278.031-90.454-47.563-90.454 47.563 17.271-100.723-73.169-71.338 101.118-14.692 45.234-91.278 45.234 91.278 101.118 14.692-73.169 71.338z" fill="#ffdf40"/></g></g><path d="m506.65 288.8c-24.901 24.901-70.499 70.499-98.401 98.101-22.5 22.5-52.798 35.099-84.598 35.099h-124.801c-20.099 20.4-90 90-90 90-3.002-2.204-50.403-37.003-47.401-34.799l85.201-145.201 177.001 30c15.899 0 31.199-6.301 42.299-17.701l55.8-55.499c23.401-23.399 61.499-23.399 84.9 0z" fill="#fb9"/><g><path d="m348.85 332c0 16.5-13.2 30-29.7 30h-142.5l-115.2 115.201-56.1-41.7 116.1-115.8c11.102-11.4 26.4-17.701 42.301-17.701h155.099c16.8 0 30 13.5 30 30z" fill="#ffd9b3"/></g><path d="m342.104 278.031-17.27-100.722 73.169-71.338-101.118-14.693-45.235-91.278v230.468z" fill="#ffbe40"/></g></svg>